<?xml version="1.0" encoding="iso-8859-1"?>
<!-- Generator: Adobe Illustrator 20.1.0, SVG Export Plug-In . SVG Version: 6.00 Build 0)  -->
<svg version="1.1" xmlns="http://www.w3.org/2000/svg" xmlns:xlink="http://www.w3.org/1999/xlink" x="0px" y="0px"
	 viewBox="0 0 512 512" style="enable-background:new 0 0 512 512;" xml:space="preserve">
<g id="icon-cargar">
</g>
<g id="icon-insertar">
</g>
<g id="icon-descargar">
</g>
<g id="icon-ver">
</g>
<g id="icon-editar">
</g>
<g id="icon-eliminar">
</g>
<g id="icon-right2">
</g>
<g id="icon-left2">
</g>
<g id="icon-ppt">
</g>
<g id="icon-txt">
</g>
<g id="icon-doc">
</g>
<g id="icon-xls">
</g>
<g id="icon-pdf">
</g>
<g id="icon-imagen">
</g>
<g id="icon-audio2">
</g>
<g id="icon-audio">
</g>
<g id="icon-video">
</g>
<g id="icon-mas">
</g>
<g id="icon-ubicacionweb">
</g>
<g id="icon-ubicacionArbol">
</g>
<g id="icon-activo">
</g>
<g id="icon-logo">
</g>
<g id="icon-engrane">
</g>
<g id="icon-file">
</g>
<g id="icon-right">
</g>
<g id="icon-left">
</g>
<g id="icon-buscar">
</g>
<g id="icon-termografia">
</g>
<g id="icon-lubricacion">
</g>
<g id="icon-vibracion">
</g>
<g id="icon-temperatura">
</g>
<g id="icon-comentarios">
</g>
<g id="icon-empresas2">
</g>
<g id="icon-visual">
</g>
<g id="icon-circle">
</g>
<g id="icon-logout">
</g>
<g id="icon-pass">
</g>
<g id="icon-empresas">
	<path id="share-icon" d="M356.814,171.815c-15.021,0-29.121,3.938-41.329,10.834c-8.066,4.557-17.998,4.275-25.799-0.721
		l-87.311-55.909c-6.749-4.322-11.013-11.62-11.479-19.621C189.084,75.265,163.213,50,131,50c-33.137,0-60,26.863-60,60
		c0,42.486,42.832,71.156,81.814,55.898c7.459-2.919,15.866-2.083,22.612,2.236l75.168,48.134
		c13.644,8.737,21.974,23.859,22.036,40.06c0,0.004,0,0.008,0,0.012c0.062,15.71-7.933,30.359-21.163,38.831l-76.042,48.693
		c-6.735,4.313-15.163,5.151-22.611,2.236C113.785,330.828,71,359.574,71,402c0,33.137,26.863,60,60,60
		c32.186,0,58.085-25.241,59.897-56.397c0.464-7.988,4.74-15.307,11.479-19.622l87.31-55.909c7.793-4.99,17.741-5.272,25.799-0.721
		c12.208,6.896,26.308,10.835,41.329,10.835C403.309,340.186,441,302.493,441,256C441,209.506,403.309,171.815,356.814,171.815z"/>
</g>
<g id="icon-config">
</g>
<g id="icon-noti">
</g>
<g id="icon-close">
</g>
<g id="icon-up">
</g>
<g id="icon-down">
</g>
<g id="icon-refresh">
</g>
<g id="icon-chartCir">
</g>
<g id="icon-chartBar">
</g>
<g id="icon-chartLine">
</g>
<g id="icon-lock">
</g>
<g id="icon-user">
</g>
<g id="margenes">
</g>
</svg>
