<?xml version="1.0" encoding="iso-8859-1"?>
<!-- Generator: Adobe Illustrator 20.1.0, SVG Export Plug-In . SVG Version: 6.00 Build 0)  -->
<svg version="1.1" xmlns="http://www.w3.org/2000/svg" xmlns:xlink="http://www.w3.org/1999/xlink" x="0px" y="0px"
	 viewBox="0 0 512 512" style="enable-background:new 0 0 512 512;" xml:space="preserve">
<g id="icon-cargar">
</g>
<g id="icon-insertar">
</g>
<g id="icon-descargar">
</g>
<g id="icon-ver">
</g>
<g id="icon-editar">
</g>
<g id="icon-eliminar">
</g>
<g id="icon-right2">
</g>
<g id="icon-left2">
</g>
<g id="icon-ppt">
</g>
<g id="icon-txt">
</g>
<g id="icon-doc">
</g>
<g id="icon-xls">
</g>
<g id="icon-pdf">
</g>
<g id="icon-imagen">
</g>
<g id="icon-audio2">
</g>
<g id="icon-audio">
</g>
<g id="icon-video">
</g>
<g id="icon-mas">
</g>
<g id="icon-ubicacionweb">
</g>
<g id="icon-ubicacionArbol">
</g>
<g id="icon-activo">
</g>
<g id="icon-logo">
</g>
<g id="icon-engrane">
</g>
<g id="icon-file">
</g>
<g id="icon-right">
</g>
<g id="icon-left">
</g>
<g id="icon-buscar">
</g>
<g id="icon-termografia">
	<g>
		<path id="crosshair-4-icon_2_" d="M256,90c44.34,0,86.026,17.267,117.38,48.62C404.732,169.974,422,211.66,422,256
			s-17.268,86.026-48.62,117.38C342.026,404.732,300.34,422,256,422c-44.341,0-86.026-17.268-117.38-48.62
			C107.267,342.026,90,300.34,90,256s17.267-86.026,48.62-117.38C169.974,107.267,211.659,90,256,90 M256,50
			C142.229,50,50,142.229,50,256s92.229,206,206,206s206-92.229,206-206S369.771,50,256,50z M278.026,150.101
			c41.999,8.723,75.151,41.875,83.874,83.873h33.582c-9.452-60.34-57.116-108.003-117.456-117.455V150.101z M150.101,233.974
			c8.723-41.998,41.875-75.15,83.873-83.873v-33.582c-60.34,9.452-108.003,57.115-117.456,117.455H150.101z M361.9,278.026
			c-8.723,41.999-41.875,75.151-83.874,83.874v33.583c60.34-9.453,108.004-57.116,117.457-117.457H361.9z M233.974,361.9
			c-41.998-8.723-75.15-41.875-83.873-83.874h-33.583c9.453,60.341,57.116,108.004,117.456,117.457V361.9z"/>
		<path d="M238.51,170.175c0,0,21.052,35.632-16.491,96.346c-38.158,61.708,24.478,78.557,37.825,74.81
			c66.549-18.687,40.077-92.041,19.333-126.504c0,0,5.043,41.158-36.984,68.505C242.192,283.332,304.814,235.841,238.51,170.175z"/>
	</g>
</g>
<g id="icon-lubricacion">
</g>
<g id="icon-vibracion">
</g>
<g id="icon-temperatura">
</g>
<g id="icon-comentarios">
</g>
<g id="icon-empresas2">
</g>
<g id="icon-visual">
</g>
<g id="icon-circle">
</g>
<g id="icon-logout">
</g>
<g id="icon-pass">
</g>
<g id="icon-empresas">
</g>
<g id="icon-config">
</g>
<g id="icon-noti">
</g>
<g id="icon-close">
</g>
<g id="icon-up">
</g>
<g id="icon-down">
</g>
<g id="icon-refresh">
</g>
<g id="icon-chartCir">
</g>
<g id="icon-chartBar">
</g>
<g id="icon-chartLine">
</g>
<g id="icon-lock">
</g>
<g id="icon-user">
</g>
<g id="margenes">
</g>
</svg>
