<?xml version="1.0" encoding="iso-8859-1"?>
<!-- Generator: Adobe Illustrator 20.1.0, SVG Export Plug-In . SVG Version: 6.00 Build 0)  -->
<svg version="1.1" xmlns="http://www.w3.org/2000/svg" xmlns:xlink="http://www.w3.org/1999/xlink" x="0px" y="0px"
	 viewBox="0 0 512 512" style="enable-background:new 0 0 512 512;" xml:space="preserve">
<g id="icon-cargar">
</g>
<g id="icon-insertar">
</g>
<g id="icon-descargar">
</g>
<g id="icon-ver">
</g>
<g id="icon-editar">
</g>
<g id="icon-eliminar">
</g>
<g id="icon-right2">
</g>
<g id="icon-left2">
</g>
<g id="icon-ppt">
</g>
<g id="icon-txt">
</g>
<g id="icon-doc">
</g>
<g id="icon-xls">
</g>
<g id="icon-pdf">
</g>
<g id="icon-imagen">
</g>
<g id="icon-audio2">
</g>
<g id="icon-audio">
</g>
<g id="icon-video">
</g>
<g id="icon-mas">
</g>
<g id="icon-ubicacionweb">
</g>
<g id="icon-ubicacionArbol">
</g>
<g id="icon-activo">
</g>
<g id="icon-logo">
</g>
<g id="icon-engrane">
</g>
<g id="icon-file">
</g>
<g id="icon-right">
</g>
<g id="icon-left">
</g>
<g id="icon-buscar">
</g>
<g id="icon-termografia">
</g>
<g id="icon-lubricacion">
</g>
<g id="icon-vibracion">
</g>
<g id="icon-temperatura">
</g>
<g id="icon-comentarios">
</g>
<g id="icon-empresas2">
</g>
<g id="icon-visual">
</g>
<g id="icon-circle">
</g>
<g id="icon-logout">
</g>
<g id="icon-pass">
</g>
<g id="icon-empresas">
</g>
<g id="icon-config">
</g>
<g id="icon-noti">
</g>
<g id="icon-close">
</g>
<g id="icon-up">
</g>
<g id="icon-down">
</g>
<g id="icon-refresh">
</g>
<g id="icon-chartCir">
</g>
<g id="icon-chartBar">
</g>
<g id="icon-chartLine">
</g>
<g id="icon-lock">
</g>
<g id="icon-user">
	<g>
		<circle cx="254.608" cy="125.729" r="75.741"/>
		<path d="M442.235,305.52c0,0,1.5-13.739,0.118-18.098c-11.859-37.403-54.677-70.171-122.184-86.3c0,0-23.689,20.727-63.829,21.931
			c-40.14-1.204-63.844-21.876-63.844-21.876c-80.279,19.778-111.289,48.98-122.236,86.382c-1.285,4.389-0.624,18.25-0.624,18.25
			L69,334.163v81.025c0,7.427,7.331,9.812,14.759,9.812h24.66c7.427,0,16.582-2.385,16.582-9.812v-81.025v-0.147
			c0-5.086,1.522-3.016,6.609-3.016h-0.37c5.086,0,12.761-2.07,12.761,3.016v27.745v43.444C144,441.373,170.304,462,206.472,462
			h97.46C340.101,462,368,441.373,368,405.204V361.76v-27.745c0-5.086,5.558-3.016,10.644-3.016h0.149
			c5.086,0,8.58,1.046,8.58,6.132L387,334.163v81.025c0,7.427,7.559,9.812,14.987,9.812h24.66c7.427,0,15.354-2.385,15.354-9.812
			v-81.612L442.235,305.52z"/>
	</g>
</g>
<g id="margenes">
</g>
</svg>
