<?xml version="1.0" encoding="iso-8859-1"?>
<!-- Generator: Adobe Illustrator 20.1.0, SVG Export Plug-In . SVG Version: 6.00 Build 0)  -->
<svg version="1.1" xmlns="http://www.w3.org/2000/svg" xmlns:xlink="http://www.w3.org/1999/xlink" x="0px" y="0px"
	 viewBox="0 0 512 512" style="enable-background:new 0 0 512 512;" xml:space="preserve">
<g id="icon-cargar">
</g>
<g id="icon-insertar">
</g>
<g id="icon-descargar">
</g>
<g id="icon-ver">
</g>
<g id="icon-editar">
</g>
<g id="icon-eliminar">
</g>
<g id="icon-right2">
</g>
<g id="icon-left2">
</g>
<g id="icon-ppt">
</g>
<g id="icon-txt">
</g>
<g id="icon-doc">
</g>
<g id="icon-xls">
</g>
<g id="icon-pdf">
</g>
<g id="icon-imagen">
</g>
<g id="icon-audio2">
</g>
<g id="icon-audio">
</g>
<g id="icon-video">
</g>
<g id="icon-mas">
</g>
<g id="icon-ubicacionweb">
	<path id="navigation-9-icon" d="M184.133,177.728l124.884-45.852l-46.406,125.44l-15.254-63.78L184.133,177.728z M391.996,185.996
		c0,76.273-66.124,126.584-135.996,196.532C186.128,312.58,120.004,262.27,120.004,185.996C120.004,110.887,180.89,50,256,50
		S391.996,110.887,391.996,185.996z M355.779,181.829c0-55.106-44.674-99.779-99.779-99.779s-99.779,44.673-99.779,99.779
		c0,55.105,44.674,99.777,99.779,99.777S355.779,236.935,355.779,181.829z M394.438,327.556h-40.311
		c-9.34,10.001-19.275,19.944-29.561,30h51.372l13.346,26.557h-92.109c-5.066,4.919-10.176,9.919-15.301,15h48.974L344.457,432
		h-166.1l14.292-32.888h37.477c-5.125-5.081-10.234-10.081-15.301-15h-58.749l-10.784-26.557h42.142
		c-10.285-10.056-20.221-19.999-29.561-30h-40.311L50,462h412L394.438,327.556z M162.002,432H98.651l33.562-66.785l13.766,33.897
		h30.314L162.002,432z M347.08,399.112h49.741L413.349,432H360.69L347.08,399.112z"/>
</g>
<g id="icon-ubicacionArbol">
</g>
<g id="icon-activo">
</g>
<g id="icon-logo">
</g>
<g id="icon-engrane">
</g>
<g id="icon-file">
</g>
<g id="icon-right">
</g>
<g id="icon-left">
</g>
<g id="icon-buscar">
</g>
<g id="icon-termografia">
</g>
<g id="icon-lubricacion">
</g>
<g id="icon-vibracion">
</g>
<g id="icon-temperatura">
</g>
<g id="icon-comentarios">
</g>
<g id="icon-empresas2">
</g>
<g id="icon-visual">
</g>
<g id="icon-circle">
</g>
<g id="icon-logout">
</g>
<g id="icon-pass">
</g>
<g id="icon-empresas">
</g>
<g id="icon-config">
</g>
<g id="icon-noti">
</g>
<g id="icon-close">
</g>
<g id="icon-up">
</g>
<g id="icon-down">
</g>
<g id="icon-refresh">
</g>
<g id="icon-chartCir">
</g>
<g id="icon-chartBar">
</g>
<g id="icon-chartLine">
</g>
<g id="icon-lock">
</g>
<g id="icon-user">
</g>
<g id="margenes">
</g>
</svg>
