<?xml version="1.0" encoding="iso-8859-1"?>
<!-- Generator: Adobe Illustrator 20.1.0, SVG Export Plug-In . SVG Version: 6.00 Build 0)  -->
<svg version="1.1" xmlns="http://www.w3.org/2000/svg" xmlns:xlink="http://www.w3.org/1999/xlink" x="0px" y="0px"
	 viewBox="0 0 512 512" style="enable-background:new 0 0 512 512;" xml:space="preserve">
<g id="icon-cargar">
</g>
<g id="icon-insertar">
</g>
<g id="icon-descargar">
</g>
<g id="icon-ver">
</g>
<g id="icon-editar">
</g>
<g id="icon-eliminar">
</g>
<g id="icon-right2">
</g>
<g id="icon-left2">
</g>
<g id="icon-ppt">
</g>
<g id="icon-txt">
</g>
<g id="icon-doc">
</g>
<g id="icon-xls">
</g>
<g id="icon-pdf">
</g>
<g id="icon-imagen">
</g>
<g id="icon-audio2">
</g>
<g id="icon-audio">
</g>
<g id="icon-video">
	<path id="video-icon" d="M50,60.345v391.311h412V60.345H50z M137.408,410.862H92.354v-38.747h45.055L137.408,410.862
		L137.408,410.862z M137.408,343.278H92.354v-38.747h45.055L137.408,343.278L137.408,343.278z M137.408,275.372H92.354v-38.747
		h45.055L137.408,275.372L137.408,275.372z M137.408,208.111H92.354v-38.748h45.055L137.408,208.111L137.408,208.111z
		 M137.408,140.526H92.354v-38.747h45.055L137.408,140.526L137.408,140.526z M337.646,410.862H177.961V275.694h159.685V410.862z
		 M337.646,236.947H177.961V101.779h159.685V236.947z M423.253,410.862h-45.054v-38.747h45.054V410.862z M423.253,343.278h-45.054
		v-38.747h45.054V343.278z M423.253,275.372h-45.054v-38.747h45.054V275.372z M423.253,208.111h-45.054v-38.748h45.054V208.111z
		 M423.253,140.526h-45.054v-38.747h45.054V140.526z"/>
</g>
<g id="icon-mas">
</g>
<g id="icon-ubicacionweb">
</g>
<g id="icon-ubicacionArbol">
</g>
<g id="icon-activo">
</g>
<g id="icon-logo">
</g>
<g id="icon-engrane">
</g>
<g id="icon-file">
</g>
<g id="icon-right">
</g>
<g id="icon-left">
</g>
<g id="icon-buscar">
</g>
<g id="icon-termografia">
</g>
<g id="icon-lubricacion">
</g>
<g id="icon-vibracion">
</g>
<g id="icon-temperatura">
</g>
<g id="icon-comentarios">
</g>
<g id="icon-empresas2">
</g>
<g id="icon-visual">
</g>
<g id="icon-circle">
</g>
<g id="icon-logout">
</g>
<g id="icon-pass">
</g>
<g id="icon-empresas">
</g>
<g id="icon-config">
</g>
<g id="icon-noti">
</g>
<g id="icon-close">
</g>
<g id="icon-up">
</g>
<g id="icon-down">
</g>
<g id="icon-refresh">
</g>
<g id="icon-chartCir">
</g>
<g id="icon-chartBar">
</g>
<g id="icon-chartLine">
</g>
<g id="icon-lock">
</g>
<g id="icon-user">
</g>
<g id="margenes">
</g>
</svg>
