<?xml version="1.0" encoding="iso-8859-1"?>
<!-- Generator: Adobe Illustrator 20.1.0, SVG Export Plug-In . SVG Version: 6.00 Build 0)  -->
<svg version="1.1" xmlns="http://www.w3.org/2000/svg" xmlns:xlink="http://www.w3.org/1999/xlink" x="0px" y="0px"
	 viewBox="0 0 512 512" style="enable-background:new 0 0 512 512;" xml:space="preserve">
<g id="icon-cargar">
</g>
<g id="icon-insertar">
	<path id="link-icon" d="M156.225,199.679c7.541-7.54,15.902-13.757,24.794-18.659c49.556-27.318,113.117-12.788,144.97,35.518
		l-38.547,38.547c-11.059-25.227-38.5-39.565-65.813-33.456c-10.282,2.3-20.054,7.427-28.039,15.413l-73.898,73.896
		c-22.433,22.433-22.432,58.936,0.002,81.369c22.433,22.433,58.935,22.433,81.368,0l22.78-22.779
		c20.71,8.217,42.938,11.508,64.862,9.863l-50.278,50.278c-43.105,43.105-112.991,43.105-156.096,0
		c-43.105-43.104-43.106-112.991-0.001-156.096L156.225,199.679z M273.573,82.33l-50.278,50.278
		c21.928-1.643,44.152,1.648,64.863,9.865l22.779-22.78c22.434-22.434,58.936-22.434,81.37,0s22.434,58.936,0,81.37l-73.897,73.895
		c-22.501,22.501-59.061,22.311-81.368,0c-5.202-5.201-9.694-11.678-12.484-18.04l-38.546,38.546
		c4.049,6.142,8.261,11.453,13.666,16.858c13.949,13.95,31.698,24.339,52.117,29.251c26.466,6.37,54.823,2.839,79.185-10.592
		c8.892-4.903,17.254-11.119,24.794-18.659l73.896-73.895c43.105-43.105,43.105-112.991,0.001-156.097
		C386.565,39.225,316.679,39.225,273.573,82.33z"/>
</g>
<g id="icon-descargar">
</g>
<g id="icon-ver">
</g>
<g id="icon-editar">
</g>
<g id="icon-eliminar">
</g>
<g id="icon-right2">
</g>
<g id="icon-left2">
</g>
<g id="icon-ppt">
</g>
<g id="icon-txt">
</g>
<g id="icon-doc">
</g>
<g id="icon-xls">
</g>
<g id="icon-pdf">
</g>
<g id="icon-imagen">
</g>
<g id="icon-audio2">
</g>
<g id="icon-audio">
</g>
<g id="icon-video">
</g>
<g id="icon-mas">
</g>
<g id="icon-ubicacionweb">
</g>
<g id="icon-ubicacionArbol">
</g>
<g id="icon-activo">
</g>
<g id="icon-logo">
</g>
<g id="icon-engrane">
</g>
<g id="icon-file">
</g>
<g id="icon-right">
</g>
<g id="icon-left">
</g>
<g id="icon-buscar">
</g>
<g id="icon-termografia">
</g>
<g id="icon-lubricacion">
</g>
<g id="icon-vibracion">
</g>
<g id="icon-temperatura">
</g>
<g id="icon-comentarios">
</g>
<g id="icon-empresas2">
</g>
<g id="icon-visual">
</g>
<g id="icon-circle">
</g>
<g id="icon-logout">
</g>
<g id="icon-pass">
</g>
<g id="icon-empresas">
</g>
<g id="icon-config">
</g>
<g id="icon-noti">
</g>
<g id="icon-close">
</g>
<g id="icon-up">
</g>
<g id="icon-down">
</g>
<g id="icon-refresh">
</g>
<g id="icon-chartCir">
</g>
<g id="icon-chartBar">
</g>
<g id="icon-chartLine">
</g>
<g id="icon-lock">
</g>
<g id="icon-user">
</g>
<g id="margenes">
</g>
</svg>
