<?xml version="1.0" encoding="iso-8859-1"?>
<!-- Generator: Adobe Illustrator 20.1.0, SVG Export Plug-In . SVG Version: 6.00 Build 0)  -->
<svg version="1.1" xmlns="http://www.w3.org/2000/svg" xmlns:xlink="http://www.w3.org/1999/xlink" x="0px" y="0px"
	 viewBox="0 0 512 512" style="enable-background:new 0 0 512 512;" xml:space="preserve">
<g id="icon-cargar">
</g>
<g id="icon-insertar">
</g>
<g id="icon-descargar">
</g>
<g id="icon-ver">
</g>
<g id="icon-editar">
</g>
<g id="icon-eliminar">
</g>
<g id="icon-right2">
</g>
<g id="icon-left2">
</g>
<g id="icon-ppt">
</g>
<g id="icon-txt">
</g>
<g id="icon-doc">
</g>
<g id="icon-xls">
</g>
<g id="icon-pdf">
</g>
<g id="icon-imagen">
</g>
<g id="icon-audio2">
</g>
<g id="icon-audio">
</g>
<g id="icon-video">
</g>
<g id="icon-mas">
</g>
<g id="icon-ubicacionweb">
</g>
<g id="icon-ubicacionArbol">
</g>
<g id="icon-activo">
</g>
<g id="icon-logo">
</g>
<g id="icon-engrane">
</g>
<g id="icon-file">
</g>
<g id="icon-right">
</g>
<g id="icon-left">
</g>
<g id="icon-buscar">
</g>
<g id="icon-termografia">
</g>
<g id="icon-lubricacion">
</g>
<g id="icon-vibracion">
</g>
<g id="icon-temperatura">
</g>
<g id="icon-comentarios">
</g>
<g id="icon-empresas2">
</g>
<g id="icon-visual">
	<path id="eye-3-icon" d="M256.25,121.666c-129.917,0-206.25,127-206.25,127s83,141.668,206.25,141.668
		C389,390.334,462,248.666,462,248.666S388.334,121.666,256.25,121.666z M258,336c-44.184,0-80-35.816-80-80
		c0-44.183,35.816-80,80-80c44.183,0,80,35.817,80,80C338,300.184,302.183,336,258,336z M303,256c0,24.854-20.147,45-45,45
		c-24.854,0-45-20.146-45-45c0-2.979,0.297-5.889,0.85-8.706c22.112,8.115,43.895-13.234,36.069-35.556
		c2.623-0.477,5.32-0.738,8.081-0.738C282.853,211,303,231.147,303,256z"/>
</g>
<g id="icon-circle">
</g>
<g id="icon-logout">
</g>
<g id="icon-pass">
</g>
<g id="icon-empresas">
</g>
<g id="icon-config">
</g>
<g id="icon-noti">
</g>
<g id="icon-close">
</g>
<g id="icon-up">
</g>
<g id="icon-down">
</g>
<g id="icon-refresh">
</g>
<g id="icon-chartCir">
</g>
<g id="icon-chartBar">
</g>
<g id="icon-chartLine">
</g>
<g id="icon-lock">
</g>
<g id="icon-user">
</g>
<g id="margenes">
</g>
</svg>
