<?xml version="1.0" encoding="iso-8859-1"?>
<!-- Generator: Adobe Illustrator 20.1.0, SVG Export Plug-In . SVG Version: 6.00 Build 0)  -->
<svg version="1.1" xmlns="http://www.w3.org/2000/svg" xmlns:xlink="http://www.w3.org/1999/xlink" x="0px" y="0px"
	 viewBox="0 0 512 512" style="enable-background:new 0 0 512 512;" xml:space="preserve">
<g id="icon-cargar">
</g>
<g id="icon-insertar">
</g>
<g id="icon-descargar">
</g>
<g id="icon-ver">
</g>
<g id="icon-editar">
</g>
<g id="icon-eliminar">
</g>
<g id="icon-right2">
</g>
<g id="icon-left2">
</g>
<g id="icon-ppt">
</g>
<g id="icon-txt">
</g>
<g id="icon-doc">
</g>
<g id="icon-xls">
</g>
<g id="icon-pdf">
</g>
<g id="icon-imagen">
</g>
<g id="icon-audio2">
</g>
<g id="icon-audio">
</g>
<g id="icon-video">
</g>
<g id="icon-mas">
</g>
<g id="icon-ubicacionweb">
</g>
<g id="icon-ubicacionArbol">
</g>
<g id="icon-activo">
</g>
<g id="icon-logo">
</g>
<g id="icon-engrane">
</g>
<g id="icon-file">
</g>
<g id="icon-right">
</g>
<g id="icon-left">
</g>
<g id="icon-buscar">
</g>
<g id="icon-termografia">
</g>
<g id="icon-lubricacion">
</g>
<g id="icon-vibracion">
</g>
<g id="icon-temperatura">
</g>
<g id="icon-comentarios">
</g>
<g id="icon-empresas2">
</g>
<g id="icon-visual">
</g>
<g id="icon-circle">
</g>
<g id="icon-logout">
</g>
<g id="icon-pass">
</g>
<g id="icon-empresas">
</g>
<g id="icon-config">
</g>
<g id="icon-noti">
</g>
<g id="icon-close">
</g>
<g id="icon-up">
</g>
<g id="icon-down">
</g>
<g id="icon-refresh">
</g>
<g id="icon-chartCir">
</g>
<g id="icon-chartBar">
</g>
<g id="icon-chartLine">
</g>
<g id="icon-lock">
	<path id="lock-3-icon" d="M195.334,223.333h-50v-62.666C145.334,99.645,194.979,50,256,50c61.022,0,110.667,49.645,110.667,110.667
		v62.666h-50v-62.666C316.667,127.215,289.452,100,256,100c-33.451,0-60.666,27.215-60.666,60.667V223.333z M404,253.333V462H108
		V253.333H404z M283,341c0-14.912-12.088-27-27-27s-27,12.088-27,27c0,7.811,3.317,14.844,8.619,19.773
		c4.385,4.075,6.881,9.8,6.881,15.785V399.5h23v-22.941c0-5.989,2.494-11.708,6.881-15.785C279.683,355.844,283,348.811,283,341z"/>
</g>
<g id="icon-user">
</g>
<g id="margenes">
</g>
</svg>
