<?xml version="1.0" encoding="iso-8859-1"?>
<!-- Generator: Adobe Illustrator 20.1.0, SVG Export Plug-In . SVG Version: 6.00 Build 0)  -->
<svg version="1.1" xmlns="http://www.w3.org/2000/svg" xmlns:xlink="http://www.w3.org/1999/xlink" x="0px" y="0px"
	 viewBox="0 0 512 512" style="enable-background:new 0 0 512 512;" xml:space="preserve">
<g id="icon-cargar">
</g>
<g id="icon-insertar">
</g>
<g id="icon-descargar">
</g>
<g id="icon-ver">
</g>
<g id="icon-editar">
</g>
<g id="icon-eliminar">
</g>
<g id="icon-right2">
</g>
<g id="icon-left2">
</g>
<g id="icon-ppt">
</g>
<g id="icon-txt">
</g>
<g id="icon-doc">
</g>
<g id="icon-xls">
	<path d="M50,60v392h412V60H50z M193.576,299l-28.656-43.776L136.266,299h-27.504l42.047-60.16L112.217,183h27.072l25.631,39.024
		L190.408,183h27.504l-38.879,55.696L221.08,299H193.576z M311,299h-78V184h22v93h56V299z M397.551,280.696
		c-1.871,3.888-4.488,7.321-7.848,10.296c-3.361,2.977-7.344,5.353-11.953,7.128c-4.607,1.775-9.697,2.664-15.264,2.664
		c-4.992,0-9.48-0.288-13.463-0.864c-3.984-0.576-7.729-1.487-11.232-2.736c-3.506-1.246-6.865-2.854-10.08-4.823
		c-3.217-1.967-6.553-4.343-10.008-7.128l15.84-15.984c4.607,3.841,9.119,6.552,13.535,8.136s9.217,2.376,14.4,2.376
		c2.111,0,4.104-0.311,5.977-0.936c1.871-0.623,3.504-1.463,4.896-2.521c1.391-1.055,2.494-2.304,3.311-3.744
		c0.814-1.439,1.225-3.023,1.225-4.752c0-1.822-0.338-3.456-1.008-4.896c-0.672-1.44-1.871-2.831-3.6-4.176
		c-1.729-1.344-4.129-2.712-7.201-4.104c-3.072-1.391-7.008-2.952-11.807-4.68c-4.227-1.534-8.281-3.287-12.168-5.256
		c-3.889-1.967-7.297-4.343-10.225-7.128c-2.93-2.783-5.281-6.048-7.057-9.792c-1.777-3.744-2.664-8.159-2.664-13.248
		c0-4.896,0.984-9.407,2.953-13.536c1.967-4.127,4.654-7.654,8.064-10.584c3.406-2.928,7.391-5.207,11.951-6.84
		c4.559-1.632,9.479-2.448,14.76-2.448c8.832,0,16.271,1.152,22.32,3.456c6.047,2.304,11.424,5.665,16.127,10.08l-15.551,15.695
		c-2.881-2.783-6.098-4.918-9.648-6.407c-3.553-1.487-7.729-2.232-12.527-2.232c-2.211,0-4.248,0.338-6.121,1.008
		c-1.871,0.673-3.48,1.562-4.824,2.664c-1.346,1.105-2.424,2.401-3.238,3.889c-0.818,1.489-1.225,3.048-1.225,4.68
		c0,1.824,0.383,3.48,1.152,4.968c0.766,1.489,2.062,2.93,3.887,4.32c1.822,1.393,4.248,2.785,7.273,4.176
		c3.023,1.393,6.789,2.904,11.303,4.536c5.76,2.016,10.703,4.226,14.832,6.624c4.127,2.4,7.488,5.04,10.08,7.92
		s4.512,6.12,5.76,9.72c1.246,3.601,1.873,7.657,1.873,12.168C400.359,272.704,399.424,276.808,397.551,280.696z"/>
</g>
<g id="icon-pdf">
</g>
<g id="icon-imagen">
</g>
<g id="icon-audio2">
</g>
<g id="icon-audio">
</g>
<g id="icon-video">
</g>
<g id="icon-mas">
</g>
<g id="icon-ubicacionweb">
</g>
<g id="icon-ubicacionArbol">
</g>
<g id="icon-activo">
</g>
<g id="icon-logo">
</g>
<g id="icon-engrane">
</g>
<g id="icon-file">
</g>
<g id="icon-right">
</g>
<g id="icon-left">
</g>
<g id="icon-buscar">
</g>
<g id="icon-termografia">
</g>
<g id="icon-lubricacion">
</g>
<g id="icon-vibracion">
</g>
<g id="icon-temperatura">
</g>
<g id="icon-comentarios">
</g>
<g id="icon-empresas2">
</g>
<g id="icon-visual">
</g>
<g id="icon-circle">
</g>
<g id="icon-logout">
</g>
<g id="icon-pass">
</g>
<g id="icon-empresas">
</g>
<g id="icon-config">
</g>
<g id="icon-noti">
</g>
<g id="icon-close">
</g>
<g id="icon-up">
</g>
<g id="icon-down">
</g>
<g id="icon-refresh">
</g>
<g id="icon-chartCir">
</g>
<g id="icon-chartBar">
</g>
<g id="icon-chartLine">
</g>
<g id="icon-lock">
</g>
<g id="icon-user">
</g>
<g id="margenes">
</g>
</svg>
