<?xml version="1.0" encoding="iso-8859-1"?>
<!-- Generator: Adobe Illustrator 20.1.0, SVG Export Plug-In . SVG Version: 6.00 Build 0)  -->
<svg version="1.1" xmlns="http://www.w3.org/2000/svg" xmlns:xlink="http://www.w3.org/1999/xlink" x="0px" y="0px"
	 viewBox="0 0 512 512" style="enable-background:new 0 0 512 512;" xml:space="preserve">
<g id="icon-cargar">
</g>
<g id="icon-insertar">
</g>
<g id="icon-descargar">
</g>
<g id="icon-ver">
</g>
<g id="icon-editar">
</g>
<g id="icon-eliminar">
</g>
<g id="icon-right2">
</g>
<g id="icon-left2">
</g>
<g id="icon-ppt">
</g>
<g id="icon-txt">
</g>
<g id="icon-doc">
</g>
<g id="icon-xls">
</g>
<g id="icon-pdf">
</g>
<g id="icon-imagen">
</g>
<g id="icon-audio2">
</g>
<g id="icon-audio">
</g>
<g id="icon-video">
</g>
<g id="icon-mas">
</g>
<g id="icon-ubicacionweb">
</g>
<g id="icon-ubicacionArbol">
</g>
<g id="icon-activo">
</g>
<g id="icon-logo">
</g>
<g id="icon-engrane">
</g>
<g id="icon-file">
</g>
<g id="icon-right">
</g>
<g id="icon-left">
</g>
<g id="icon-buscar">
</g>
<g id="icon-termografia">
</g>
<g id="icon-lubricacion">
</g>
<g id="icon-vibracion">
</g>
<g id="icon-temperatura">
</g>
<g id="icon-comentarios">
</g>
<g id="icon-empresas2">
</g>
<g id="icon-visual">
</g>
<g id="icon-circle">
</g>
<g id="icon-logout">
</g>
<g id="icon-pass">
	<path id="password-9-icon" d="M220.329,358.764c0,11.184-9.066,20.25-20.25,20.25s-20.25-9.066-20.25-20.25
		s9.066-20.25,20.25-20.25S220.329,347.58,220.329,358.764z M256.43,338.514c-11.186,0-20.25,9.066-20.25,20.25
		s9.064,20.25,20.25,20.25c11.183,0,20.25-9.066,20.25-20.25S267.612,338.514,256.43,338.514z M313.59,338.514
		c-11.185,0-20.25,9.066-20.25,20.25s9.065,20.25,20.25,20.25c11.183,0,20.25-9.066,20.25-20.25S324.772,338.514,313.59,338.514z
		 M145.334,223.333v-62.666C145.334,99.646,194.979,50,256,50c61.022,0,110.667,49.646,110.667,110.667v62.666h-50v-62.666
		C316.667,127.216,289.452,100,256,100c-33.451,0-60.666,27.216-60.666,60.667v62.666H145.334z M356,301.333V414H156V301.333H356
		 M404,253.333H108V462h296V253.333z"/>
</g>
<g id="icon-empresas">
</g>
<g id="icon-config">
</g>
<g id="icon-noti">
</g>
<g id="icon-close">
</g>
<g id="icon-up">
</g>
<g id="icon-down">
</g>
<g id="icon-refresh">
</g>
<g id="icon-chartCir">
</g>
<g id="icon-chartBar">
</g>
<g id="icon-chartLine">
</g>
<g id="icon-lock">
</g>
<g id="icon-user">
</g>
<g id="margenes">
</g>
</svg>
