<?xml version="1.0" encoding="iso-8859-1"?>
<!-- Generator: Adobe Illustrator 20.1.0, SVG Export Plug-In . SVG Version: 6.00 Build 0)  -->
<svg version="1.1" xmlns="http://www.w3.org/2000/svg" xmlns:xlink="http://www.w3.org/1999/xlink" x="0px" y="0px"
	 viewBox="0 0 512 512" style="enable-background:new 0 0 512 512;" xml:space="preserve">
<g id="icon-cargar">
</g>
<g id="icon-insertar">
</g>
<g id="icon-descargar">
</g>
<g id="icon-ver">
</g>
<g id="icon-editar">
</g>
<g id="icon-eliminar">
</g>
<g id="icon-right2">
</g>
<g id="icon-left2">
</g>
<g id="icon-ppt">
</g>
<g id="icon-txt">
</g>
<g id="icon-doc">
</g>
<g id="icon-xls">
</g>
<g id="icon-pdf">
</g>
<g id="icon-imagen">
</g>
<g id="icon-audio2">
</g>
<g id="icon-audio">
</g>
<g id="icon-video">
</g>
<g id="icon-mas">
</g>
<g id="icon-ubicacionweb">
</g>
<g id="icon-ubicacionArbol">
</g>
<g id="icon-activo">
</g>
<g id="icon-logo">
</g>
<g id="icon-engrane">
</g>
<g id="icon-file">
</g>
<g id="icon-right">
</g>
<g id="icon-left">
</g>
<g id="icon-buscar">
</g>
<g id="icon-termografia">
</g>
<g id="icon-lubricacion">
</g>
<g id="icon-vibracion">
</g>
<g id="icon-temperatura">
</g>
<g id="icon-comentarios">
</g>
<g id="icon-empresas2">
</g>
<g id="icon-visual">
</g>
<g id="icon-circle">
</g>
<g id="icon-logout">
</g>
<g id="icon-pass">
</g>
<g id="icon-empresas">
</g>
<g id="icon-config">
	<path id="tools-2-icon" d="M426.316,379.918l-190.06-190.062c-9.139-9.137-13.846-21.846-12.848-34.731
		c1.887-24.409-6.5-49.462-25.169-68.13c-24.3-24.3-59.417-31.182-89.851-20.658l55.254,55.254
		c1.268,21.557-32.062,54.885-53.617,53.617l-55.253-55.253c-10.524,30.433-3.643,65.551,20.657,89.851
		c18.668,18.669,43.722,27.054,68.131,25.167c12.896-0.998,25.584,3.701,34.731,12.847l190.062,190.062
		c16.006,16.007,41.955,16.007,57.963,0C442.322,421.875,442.322,395.924,426.316,379.918z M395.336,423.291
		c-9.328,0-16.893-7.562-16.893-16.893c0-9.328,7.564-16.892,16.893-16.892s16.893,7.563,16.893,16.892
		C412.229,415.729,404.664,423.291,395.336,423.291z M276.4,188.014l98.002-98.002c20.039-20.04,52.529-20.04,72.568,0
		s20.039,52.529,0,72.568l-98.002,98.002L331.2,242.816l93.553-93.553c2.889-2.887,2.889-7.568,0-10.457
		c-2.887-2.886-7.568-2.886-10.457,0.001l-93.553,93.553l-15.211-15.211l93.551-93.554c2.889-2.887,2.889-7.568,0.002-10.456
		s-7.568-2.888-10.457,0l-93.553,93.552L276.4,188.014z M224.914,336.429l-72.324,72.325c-3.921,3.92-7.221,8.414-9.789,13.329
		l-5.197,9.95l-36.025,18.401l-14.253-14.253l17.624-36.805l9.949-5.196c4.915-2.566,9.41-5.868,13.329-9.789l72.325-72.324
		L224.914,336.429z"/>
</g>
<g id="icon-noti">
</g>
<g id="icon-close">
</g>
<g id="icon-up">
</g>
<g id="icon-down">
</g>
<g id="icon-refresh">
</g>
<g id="icon-chartCir">
</g>
<g id="icon-chartBar">
</g>
<g id="icon-chartLine">
</g>
<g id="icon-lock">
</g>
<g id="icon-user">
</g>
<g id="margenes">
</g>
</svg>
