<?xml version="1.0" encoding="iso-8859-1"?>
<!-- Generator: Adobe Illustrator 20.1.0, SVG Export Plug-In . SVG Version: 6.00 Build 0)  -->
<svg version="1.1" xmlns="http://www.w3.org/2000/svg" xmlns:xlink="http://www.w3.org/1999/xlink" x="0px" y="0px"
	 viewBox="0 0 512 512" style="enable-background:new 0 0 512 512;" xml:space="preserve">
<g id="icon-cargar">
</g>
<g id="icon-insertar">
</g>
<g id="icon-descargar">
</g>
<g id="icon-ver">
</g>
<g id="icon-editar">
</g>
<g id="icon-eliminar">
</g>
<g id="icon-right2">
</g>
<g id="icon-left2">
</g>
<g id="icon-ppt">
</g>
<g id="icon-txt">
</g>
<g id="icon-doc">
	<g>
		<path d="M50,60v392h412V60H50z M185.803,263.416c-2.688,6.962-6.432,13.057-11.232,18.288
			c-4.801,5.233-10.535,9.548-17.207,12.572C150.689,297.3,143.418,299,135.547,299H87V183h48.547c7.871,0,15.143,1.749,21.816,4.82
			c6.672,3.073,12.406,7.306,17.207,12.49s8.545,11.334,11.232,18.341c2.688,7.009,4.033,14.476,4.033,22.347
			C189.836,248.967,188.49,256.457,185.803,263.416z M314.326,264.352c-3.213,7.297-7.598,13.633-13.16,19.009
			c-5.561,5.377-12.033,9.625-19.416,12.744c-7.385,3.118-15.246,4.68-23.588,4.68s-16.229-1.562-23.66-4.68
			c-7.432-3.119-13.928-7.367-19.49-12.744c-5.562-5.376-9.947-11.687-13.16-18.937c-3.213-7.247-4.816-15.048-4.816-23.399
			c0-8.353,1.604-16.176,4.816-23.473c3.213-7.294,7.598-13.63,13.16-19.008c5.562-5.375,12.059-9.599,19.49-12.672
			c7.432-3.071,15.318-4.608,23.66-4.608s16.203,1.537,23.588,4.608c7.383,3.073,13.855,7.321,19.416,12.744
			c5.562,5.425,9.947,11.761,13.16,19.008c3.213,7.249,4.82,15.048,4.82,23.4C319.146,249.281,317.539,257.058,314.326,264.352z
			 M415.121,294.592c-8.207,4.127-17.258,6.192-27.143,6.192c-8.547,0-16.561-1.562-24.049-4.68
			c-7.488-3.119-14.004-7.367-19.543-12.744c-5.541-5.376-9.91-11.687-13.105-18.937c-3.193-7.247-4.791-15.048-4.791-23.399
			c0-8.353,1.598-16.151,4.791-23.4c3.195-7.247,7.564-13.583,13.105-19.008c5.539-5.423,12.055-9.671,19.543-12.744
			c7.488-3.071,15.502-4.608,24.049-4.608c9.885,0,18.936,2.065,27.143,6.192c8.209,4.129,15.049,9.504,20.52,16.128l-15.406,15.84
			c-3.553-5.087-8.137-9.191-13.752-12.312c-5.617-3.119-11.787-4.681-18.504-4.681c-5.379,0-10.441,1.033-15.193,3.097
			c-4.752,2.065-8.904,4.849-12.455,8.352c-3.553,3.506-6.361,7.585-8.424,12.24c-2.066,4.657-3.098,9.625-3.098,14.904
			c0,5.184,1.031,10.104,3.098,14.76c2.062,4.657,4.871,8.736,8.424,12.24c3.551,3.505,7.703,6.288,12.455,8.352
			c4.752,2.065,9.814,3.096,15.193,3.096c7.102,0,13.391-1.606,18.863-4.823c5.473-3.216,10.029-7.464,13.68-12.744l15.553,15.983
			C430.314,284.896,423.33,290.466,415.121,294.592z"/>
		<path d="M285.5,213.88c-3.51-3.503-7.623-6.286-12.334-8.352c-4.713-2.063-9.713-3.097-15.004-3.097
			c-5.387,0-10.438,1.033-15.148,3.097c-4.713,2.065-8.824,4.849-12.334,8.352c-3.512,3.506-6.275,7.585-8.297,12.24
			c-2.02,4.657-3.029,9.625-3.029,14.904c0,5.184,1.01,10.129,3.029,14.832c2.021,4.704,4.785,8.809,8.297,12.312
			c3.51,3.506,7.621,6.289,12.334,8.353c4.711,2.065,9.762,3.096,15.148,3.096c5.291,0,10.291-1.03,15.004-3.096
			c4.711-2.063,8.824-4.847,12.334-8.353c3.51-3.503,6.275-7.607,8.295-12.312c2.021-4.703,3.031-9.648,3.031-14.832
			c0-5.279-1.01-10.247-3.031-14.904C291.775,221.465,289.01,217.386,285.5,213.88z"/>
		<path d="M157.291,212.584c-3.264-3.6-7.271-6.427-12.023-8.492c-4.752-2.063-10.105-3.092-16.057-3.092H110v79h19.211
			c5.855,0,11.111-1.175,15.768-3.144c4.656-1.967,8.615-4.798,11.881-8.304c3.262-3.503,5.783-7.68,7.561-12.432
			c1.775-4.752,2.711-9.983,2.807-15.648c0.096-5.375-0.719-10.475-2.447-15.277C163.051,220.397,160.553,216.184,157.291,212.584z"
			/>
	</g>
</g>
<g id="icon-xls">
</g>
<g id="icon-pdf">
</g>
<g id="icon-imagen">
</g>
<g id="icon-audio2">
</g>
<g id="icon-audio">
</g>
<g id="icon-video">
</g>
<g id="icon-mas">
</g>
<g id="icon-ubicacionweb">
</g>
<g id="icon-ubicacionArbol">
</g>
<g id="icon-activo">
</g>
<g id="icon-logo">
</g>
<g id="icon-engrane">
</g>
<g id="icon-file">
</g>
<g id="icon-right">
</g>
<g id="icon-left">
</g>
<g id="icon-buscar">
</g>
<g id="icon-termografia">
</g>
<g id="icon-lubricacion">
</g>
<g id="icon-vibracion">
</g>
<g id="icon-temperatura">
</g>
<g id="icon-comentarios">
</g>
<g id="icon-empresas2">
</g>
<g id="icon-visual">
</g>
<g id="icon-circle">
</g>
<g id="icon-logout">
</g>
<g id="icon-pass">
</g>
<g id="icon-empresas">
</g>
<g id="icon-config">
</g>
<g id="icon-noti">
</g>
<g id="icon-close">
</g>
<g id="icon-up">
</g>
<g id="icon-down">
</g>
<g id="icon-refresh">
</g>
<g id="icon-chartCir">
</g>
<g id="icon-chartBar">
</g>
<g id="icon-chartLine">
</g>
<g id="icon-lock">
</g>
<g id="icon-user">
</g>
<g id="margenes">
</g>
</svg>
