<?xml version="1.0" encoding="iso-8859-1"?>
<!-- Generator: Adobe Illustrator 20.1.0, SVG Export Plug-In . SVG Version: 6.00 Build 0)  -->
<svg version="1.1" xmlns="http://www.w3.org/2000/svg" xmlns:xlink="http://www.w3.org/1999/xlink" x="0px" y="0px"
	 viewBox="0 0 512 512" style="enable-background:new 0 0 512 512;" xml:space="preserve">
<g id="icon-cargar">
</g>
<g id="icon-insertar">
</g>
<g id="icon-descargar">
</g>
<g id="icon-ver">
	<path d="M256,127.25c-89.855,0-167.736,52.324-206,128.75c38.264,76.426,116.145,128.75,206,128.75S423.723,332.426,462,256
		C423.736,179.574,345.855,127.25,256,127.25z M357.571,195.526c24.205,15.437,44.715,36.114,60.126,60.474
		c-15.411,24.347-35.921,45.037-60.126,60.474C327.16,335.876,292.037,346.125,256,346.125s-71.16-10.249-101.571-29.651
		c-24.205-15.437-44.715-36.114-60.126-60.474c15.411-24.347,35.921-45.037,60.126-60.474c1.571-1.004,3.167-1.983,4.777-2.936
		c-4.004,10.995-6.206,22.866-6.206,35.239c0,56.882,46.118,103,103,103s103-46.118,103-103c0-12.386-2.189-24.244-6.206-35.239
		C354.391,193.543,355.987,194.522,357.571,195.526L357.571,195.526z M256,217.375C256,238.709,238.709,256,217.375,256
		s-38.625-17.291-38.625-38.625s17.291-38.625,38.625-38.625S256,196.041,256,217.375z"/>
</g>
<g id="icon-editar">
</g>
<g id="icon-eliminar">
</g>
<g id="icon-right2">
</g>
<g id="icon-left2">
</g>
<g id="icon-ppt">
</g>
<g id="icon-txt">
</g>
<g id="icon-doc">
</g>
<g id="icon-xls">
</g>
<g id="icon-pdf">
</g>
<g id="icon-imagen">
</g>
<g id="icon-audio2">
</g>
<g id="icon-audio">
</g>
<g id="icon-video">
</g>
<g id="icon-mas">
</g>
<g id="icon-ubicacionweb">
</g>
<g id="icon-ubicacionArbol">
</g>
<g id="icon-activo">
</g>
<g id="icon-logo">
</g>
<g id="icon-engrane">
</g>
<g id="icon-file">
</g>
<g id="icon-right">
</g>
<g id="icon-left">
</g>
<g id="icon-buscar">
</g>
<g id="icon-termografia">
</g>
<g id="icon-lubricacion">
</g>
<g id="icon-vibracion">
</g>
<g id="icon-temperatura">
</g>
<g id="icon-comentarios">
</g>
<g id="icon-empresas2">
</g>
<g id="icon-visual">
</g>
<g id="icon-circle">
</g>
<g id="icon-logout">
</g>
<g id="icon-pass">
</g>
<g id="icon-empresas">
</g>
<g id="icon-config">
</g>
<g id="icon-noti">
</g>
<g id="icon-close">
</g>
<g id="icon-up">
</g>
<g id="icon-down">
</g>
<g id="icon-refresh">
</g>
<g id="icon-chartCir">
</g>
<g id="icon-chartBar">
</g>
<g id="icon-chartLine">
</g>
<g id="icon-lock">
</g>
<g id="icon-user">
</g>
<g id="margenes">
</g>
</svg>
